G04 #@! TF.FileFunction,Legend,Top*
%FSLAX46Y46*%
G04 Gerber Fmt 4.6, Leading zero omitted, Abs format (unit mm)*
G04 Created by KiCad (PCBNEW 4.0.7) date 02/12/18 20:49:11*
%MOMM*%
%LPD*%
G01*
G04 APERTURE LIST*
%ADD10C,0.100000*%
%ADD11C,0.250000*%
%ADD12C,0.200000*%
%ADD13C,0.120000*%
%ADD14C,0.150000*%
%ADD15C,0.125000*%
G04 APERTURE END LIST*
D10*
D11*
X128315651Y-112609262D02*
X128458508Y-112656881D01*
X128696604Y-112656881D01*
X128791842Y-112609262D01*
X128839461Y-112561643D01*
X128887080Y-112466405D01*
X128887080Y-112371167D01*
X128839461Y-112275929D01*
X128791842Y-112228310D01*
X128696604Y-112180690D01*
X128506127Y-112133071D01*
X128410889Y-112085452D01*
X128363270Y-112037833D01*
X128315651Y-111942595D01*
X128315651Y-111847357D01*
X128363270Y-111752119D01*
X128410889Y-111704500D01*
X128506127Y-111656881D01*
X128744223Y-111656881D01*
X128887080Y-111704500D01*
X129744223Y-112656881D02*
X129744223Y-112133071D01*
X129696604Y-112037833D01*
X129601366Y-111990214D01*
X129410889Y-111990214D01*
X129315651Y-112037833D01*
X129744223Y-112609262D02*
X129648985Y-112656881D01*
X129410889Y-112656881D01*
X129315651Y-112609262D01*
X129268032Y-112514024D01*
X129268032Y-112418786D01*
X129315651Y-112323548D01*
X129410889Y-112275929D01*
X129648985Y-112275929D01*
X129744223Y-112228310D01*
X130220413Y-111990214D02*
X130220413Y-112656881D01*
X130220413Y-112085452D02*
X130268032Y-112037833D01*
X130363270Y-111990214D01*
X130506128Y-111990214D01*
X130601366Y-112037833D01*
X130648985Y-112133071D01*
X130648985Y-112656881D01*
X130982318Y-111990214D02*
X131363270Y-111990214D01*
X131125175Y-111656881D02*
X131125175Y-112514024D01*
X131172794Y-112609262D01*
X131268032Y-112656881D01*
X131363270Y-112656881D01*
X131839461Y-112656881D02*
X131744223Y-112609262D01*
X131696604Y-112561643D01*
X131648985Y-112466405D01*
X131648985Y-112180690D01*
X131696604Y-112085452D01*
X131744223Y-112037833D01*
X131839461Y-111990214D01*
X131982319Y-111990214D01*
X132077557Y-112037833D01*
X132125176Y-112085452D01*
X132172795Y-112180690D01*
X132172795Y-112466405D01*
X132125176Y-112561643D01*
X132077557Y-112609262D01*
X131982319Y-112656881D01*
X131839461Y-112656881D01*
X132553747Y-112609262D02*
X132648985Y-112656881D01*
X132839461Y-112656881D01*
X132934700Y-112609262D01*
X132982319Y-112514024D01*
X132982319Y-112466405D01*
X132934700Y-112371167D01*
X132839461Y-112323548D01*
X132696604Y-112323548D01*
X132601366Y-112275929D01*
X132553747Y-112180690D01*
X132553747Y-112133071D01*
X132601366Y-112037833D01*
X132696604Y-111990214D01*
X132839461Y-111990214D01*
X132934700Y-112037833D01*
X133410890Y-112656881D02*
X133410890Y-111656881D01*
X133839462Y-112656881D02*
X133839462Y-112133071D01*
X133791843Y-112037833D01*
X133696605Y-111990214D01*
X133553747Y-111990214D01*
X133458509Y-112037833D01*
X133410890Y-112085452D01*
X135077557Y-112656881D02*
X135077557Y-111656881D01*
X135648986Y-112656881D01*
X135648986Y-111656881D01*
X136696605Y-112656881D02*
X136363271Y-112180690D01*
X136125176Y-112656881D02*
X136125176Y-111656881D01*
X136506129Y-111656881D01*
X136601367Y-111704500D01*
X136648986Y-111752119D01*
X136696605Y-111847357D01*
X136696605Y-111990214D01*
X136648986Y-112085452D01*
X136601367Y-112133071D01*
X136506129Y-112180690D01*
X136125176Y-112180690D01*
X137458510Y-112133071D02*
X137125176Y-112133071D01*
X137125176Y-112656881D02*
X137125176Y-111656881D01*
X137601367Y-111656881D01*
X137934700Y-111752119D02*
X137982319Y-111704500D01*
X138077557Y-111656881D01*
X138315653Y-111656881D01*
X138410891Y-111704500D01*
X138458510Y-111752119D01*
X138506129Y-111847357D01*
X138506129Y-111942595D01*
X138458510Y-112085452D01*
X137887081Y-112656881D01*
X138506129Y-112656881D01*
X139363272Y-111990214D02*
X139363272Y-112656881D01*
X139125176Y-111609262D02*
X138887081Y-112323548D01*
X139506129Y-112323548D01*
X140982320Y-112133071D02*
X141125177Y-112180690D01*
X141172796Y-112228310D01*
X141220415Y-112323548D01*
X141220415Y-112466405D01*
X141172796Y-112561643D01*
X141125177Y-112609262D01*
X141029939Y-112656881D01*
X140648986Y-112656881D01*
X140648986Y-111656881D01*
X140982320Y-111656881D01*
X141077558Y-111704500D01*
X141125177Y-111752119D01*
X141172796Y-111847357D01*
X141172796Y-111942595D01*
X141125177Y-112037833D01*
X141077558Y-112085452D01*
X140982320Y-112133071D01*
X140648986Y-112133071D01*
X141648986Y-112656881D02*
X141648986Y-111990214D01*
X141648986Y-112180690D02*
X141696605Y-112085452D01*
X141744224Y-112037833D01*
X141839462Y-111990214D01*
X141934701Y-111990214D01*
X142648987Y-112609262D02*
X142553749Y-112656881D01*
X142363272Y-112656881D01*
X142268034Y-112609262D01*
X142220415Y-112514024D01*
X142220415Y-112133071D01*
X142268034Y-112037833D01*
X142363272Y-111990214D01*
X142553749Y-111990214D01*
X142648987Y-112037833D01*
X142696606Y-112133071D01*
X142696606Y-112228310D01*
X142220415Y-112323548D01*
X143553749Y-112656881D02*
X143553749Y-112133071D01*
X143506130Y-112037833D01*
X143410892Y-111990214D01*
X143220415Y-111990214D01*
X143125177Y-112037833D01*
X143553749Y-112609262D02*
X143458511Y-112656881D01*
X143220415Y-112656881D01*
X143125177Y-112609262D01*
X143077558Y-112514024D01*
X143077558Y-112418786D01*
X143125177Y-112323548D01*
X143220415Y-112275929D01*
X143458511Y-112275929D01*
X143553749Y-112228310D01*
X144029939Y-112656881D02*
X144029939Y-111656881D01*
X144125177Y-112275929D02*
X144410892Y-112656881D01*
X144410892Y-111990214D02*
X144029939Y-112371167D01*
X144982320Y-112656881D02*
X144887082Y-112609262D01*
X144839463Y-112561643D01*
X144791844Y-112466405D01*
X144791844Y-112180690D01*
X144839463Y-112085452D01*
X144887082Y-112037833D01*
X144982320Y-111990214D01*
X145125178Y-111990214D01*
X145220416Y-112037833D01*
X145268035Y-112085452D01*
X145315654Y-112180690D01*
X145315654Y-112466405D01*
X145268035Y-112561643D01*
X145220416Y-112609262D01*
X145125178Y-112656881D01*
X144982320Y-112656881D01*
X146172797Y-111990214D02*
X146172797Y-112656881D01*
X145744225Y-111990214D02*
X145744225Y-112514024D01*
X145791844Y-112609262D01*
X145887082Y-112656881D01*
X146029940Y-112656881D01*
X146125178Y-112609262D01*
X146172797Y-112561643D01*
X146506130Y-111990214D02*
X146887082Y-111990214D01*
X146648987Y-111656881D02*
X146648987Y-112514024D01*
X146696606Y-112609262D01*
X146791844Y-112656881D01*
X146887082Y-112656881D01*
D12*
X127812952Y-131260905D02*
X128079619Y-132060905D01*
X128346286Y-131260905D01*
X129032000Y-132060905D02*
X128574857Y-132060905D01*
X128803428Y-132060905D02*
X128803428Y-131260905D01*
X128727238Y-131375190D01*
X128651047Y-131451381D01*
X128574857Y-131489476D01*
X129374857Y-131984714D02*
X129412952Y-132022810D01*
X129374857Y-132060905D01*
X129336762Y-132022810D01*
X129374857Y-131984714D01*
X129374857Y-132060905D01*
X129908190Y-131260905D02*
X129984381Y-131260905D01*
X130060571Y-131299000D01*
X130098666Y-131337095D01*
X130136762Y-131413286D01*
X130174857Y-131565667D01*
X130174857Y-131756143D01*
X130136762Y-131908524D01*
X130098666Y-131984714D01*
X130060571Y-132022810D01*
X129984381Y-132060905D01*
X129908190Y-132060905D01*
X129832000Y-132022810D01*
X129793904Y-131984714D01*
X129755809Y-131908524D01*
X129717714Y-131756143D01*
X129717714Y-131565667D01*
X129755809Y-131413286D01*
X129793904Y-131337095D01*
X129832000Y-131299000D01*
X129908190Y-131260905D01*
X148869477Y-110979000D02*
X148793286Y-110940905D01*
X148679001Y-110940905D01*
X148564715Y-110979000D01*
X148488524Y-111055190D01*
X148450429Y-111131381D01*
X148412334Y-111283762D01*
X148412334Y-111398048D01*
X148450429Y-111550429D01*
X148488524Y-111626619D01*
X148564715Y-111702810D01*
X148679001Y-111740905D01*
X148755191Y-111740905D01*
X148869477Y-111702810D01*
X148907572Y-111664714D01*
X148907572Y-111398048D01*
X148755191Y-111398048D01*
X149250429Y-111740905D02*
X149250429Y-110940905D01*
X149707572Y-111740905D01*
X149707572Y-110940905D01*
X150088524Y-111740905D02*
X150088524Y-110940905D01*
X150279000Y-110940905D01*
X150393286Y-110979000D01*
X150469477Y-111055190D01*
X150507572Y-111131381D01*
X150545667Y-111283762D01*
X150545667Y-111398048D01*
X150507572Y-111550429D01*
X150469477Y-111626619D01*
X150393286Y-111702810D01*
X150279000Y-111740905D01*
X150088524Y-111740905D01*
X149364714Y-114331714D02*
X149326619Y-114369810D01*
X149212333Y-114407905D01*
X149136143Y-114407905D01*
X149021857Y-114369810D01*
X148945666Y-114293619D01*
X148907571Y-114217429D01*
X148869476Y-114065048D01*
X148869476Y-113950762D01*
X148907571Y-113798381D01*
X148945666Y-113722190D01*
X149021857Y-113646000D01*
X149136143Y-113607905D01*
X149212333Y-113607905D01*
X149326619Y-113646000D01*
X149364714Y-113684095D01*
X149707571Y-113988857D02*
X149974238Y-113988857D01*
X150088524Y-114407905D02*
X149707571Y-114407905D01*
X149707571Y-113607905D01*
X150088524Y-113607905D01*
X148577429Y-116528810D02*
X148691715Y-116566905D01*
X148882191Y-116566905D01*
X148958381Y-116528810D01*
X148996477Y-116490714D01*
X149034572Y-116414524D01*
X149034572Y-116338333D01*
X148996477Y-116262143D01*
X148958381Y-116224048D01*
X148882191Y-116185952D01*
X148729810Y-116147857D01*
X148653619Y-116109762D01*
X148615524Y-116071667D01*
X148577429Y-115995476D01*
X148577429Y-115919286D01*
X148615524Y-115843095D01*
X148653619Y-115805000D01*
X148729810Y-115766905D01*
X148920286Y-115766905D01*
X149034572Y-115805000D01*
X149834572Y-116490714D02*
X149796477Y-116528810D01*
X149682191Y-116566905D01*
X149606001Y-116566905D01*
X149491715Y-116528810D01*
X149415524Y-116452619D01*
X149377429Y-116376429D01*
X149339334Y-116224048D01*
X149339334Y-116109762D01*
X149377429Y-115957381D01*
X149415524Y-115881190D01*
X149491715Y-115805000D01*
X149606001Y-115766905D01*
X149682191Y-115766905D01*
X149796477Y-115805000D01*
X149834572Y-115843095D01*
X150177429Y-116566905D02*
X150177429Y-115766905D01*
X150634572Y-116566905D02*
X150291715Y-116109762D01*
X150634572Y-115766905D02*
X150177429Y-116224048D01*
X148348857Y-119487905D02*
X148348857Y-118687905D01*
X148615524Y-119259333D01*
X148882191Y-118687905D01*
X148882191Y-119487905D01*
X149263143Y-119487905D02*
X149263143Y-118687905D01*
X149606000Y-119449810D02*
X149720286Y-119487905D01*
X149910762Y-119487905D01*
X149986952Y-119449810D01*
X150025048Y-119411714D01*
X150063143Y-119335524D01*
X150063143Y-119259333D01*
X150025048Y-119183143D01*
X149986952Y-119145048D01*
X149910762Y-119106952D01*
X149758381Y-119068857D01*
X149682190Y-119030762D01*
X149644095Y-118992667D01*
X149606000Y-118916476D01*
X149606000Y-118840286D01*
X149644095Y-118764095D01*
X149682190Y-118726000D01*
X149758381Y-118687905D01*
X149948857Y-118687905D01*
X150063143Y-118726000D01*
X150558381Y-118687905D02*
X150710762Y-118687905D01*
X150786953Y-118726000D01*
X150863143Y-118802190D01*
X150901238Y-118954571D01*
X150901238Y-119221238D01*
X150863143Y-119373619D01*
X150786953Y-119449810D01*
X150710762Y-119487905D01*
X150558381Y-119487905D01*
X150482191Y-119449810D01*
X150406000Y-119373619D01*
X150367905Y-119221238D01*
X150367905Y-118954571D01*
X150406000Y-118802190D01*
X150482191Y-118726000D01*
X150558381Y-118687905D01*
X148659953Y-122027905D02*
X148659953Y-121227905D01*
X149498048Y-122027905D02*
X149231381Y-121646952D01*
X149040905Y-122027905D02*
X149040905Y-121227905D01*
X149345667Y-121227905D01*
X149421858Y-121266000D01*
X149459953Y-121304095D01*
X149498048Y-121380286D01*
X149498048Y-121494571D01*
X149459953Y-121570762D01*
X149421858Y-121608857D01*
X149345667Y-121646952D01*
X149040905Y-121646952D01*
X150374239Y-122104095D02*
X150298048Y-122066000D01*
X150221858Y-121989810D01*
X150107572Y-121875524D01*
X150031381Y-121837429D01*
X149955191Y-121837429D01*
X149993286Y-122027905D02*
X149917096Y-121989810D01*
X149840905Y-121913619D01*
X149802810Y-121761238D01*
X149802810Y-121494571D01*
X149840905Y-121342190D01*
X149917096Y-121266000D01*
X149993286Y-121227905D01*
X150145667Y-121227905D01*
X150221858Y-121266000D01*
X150298048Y-121342190D01*
X150336143Y-121494571D01*
X150336143Y-121761238D01*
X150298048Y-121913619D01*
X150221858Y-121989810D01*
X150145667Y-122027905D01*
X149993286Y-122027905D01*
X147967857Y-124821905D02*
X147967857Y-124021905D01*
X148234524Y-124593333D01*
X148501191Y-124021905D01*
X148501191Y-124821905D01*
X149034524Y-124021905D02*
X149186905Y-124021905D01*
X149263096Y-124060000D01*
X149339286Y-124136190D01*
X149377381Y-124288571D01*
X149377381Y-124555238D01*
X149339286Y-124707619D01*
X149263096Y-124783810D01*
X149186905Y-124821905D01*
X149034524Y-124821905D01*
X148958334Y-124783810D01*
X148882143Y-124707619D01*
X148844048Y-124555238D01*
X148844048Y-124288571D01*
X148882143Y-124136190D01*
X148958334Y-124060000D01*
X149034524Y-124021905D01*
X149682143Y-124783810D02*
X149796429Y-124821905D01*
X149986905Y-124821905D01*
X150063095Y-124783810D01*
X150101191Y-124745714D01*
X150139286Y-124669524D01*
X150139286Y-124593333D01*
X150101191Y-124517143D01*
X150063095Y-124479048D01*
X149986905Y-124440952D01*
X149834524Y-124402857D01*
X149758333Y-124364762D01*
X149720238Y-124326667D01*
X149682143Y-124250476D01*
X149682143Y-124174286D01*
X149720238Y-124098095D01*
X149758333Y-124060000D01*
X149834524Y-124021905D01*
X150025000Y-124021905D01*
X150139286Y-124060000D01*
X150482143Y-124821905D02*
X150482143Y-124021905D01*
X148672619Y-126777714D02*
X148634524Y-126815810D01*
X148520238Y-126853905D01*
X148444048Y-126853905D01*
X148329762Y-126815810D01*
X148253571Y-126739619D01*
X148215476Y-126663429D01*
X148177381Y-126511048D01*
X148177381Y-126396762D01*
X148215476Y-126244381D01*
X148253571Y-126168190D01*
X148329762Y-126092000D01*
X148444048Y-126053905D01*
X148520238Y-126053905D01*
X148634524Y-126092000D01*
X148672619Y-126130095D01*
X149015476Y-126853905D02*
X149015476Y-126053905D01*
X149472619Y-126853905D01*
X149472619Y-126053905D01*
X149815476Y-126815810D02*
X149929762Y-126853905D01*
X150120238Y-126853905D01*
X150196428Y-126815810D01*
X150234524Y-126777714D01*
X150272619Y-126701524D01*
X150272619Y-126625333D01*
X150234524Y-126549143D01*
X150196428Y-126511048D01*
X150120238Y-126472952D01*
X149967857Y-126434857D01*
X149891666Y-126396762D01*
X149853571Y-126358667D01*
X149815476Y-126282476D01*
X149815476Y-126206286D01*
X149853571Y-126130095D01*
X149891666Y-126092000D01*
X149967857Y-126053905D01*
X150158333Y-126053905D01*
X150272619Y-126092000D01*
X148399619Y-128593905D02*
X148666286Y-129393905D01*
X148932953Y-128593905D01*
X149542476Y-129355810D02*
X149466286Y-129393905D01*
X149313905Y-129393905D01*
X149237714Y-129355810D01*
X149199619Y-129317714D01*
X149161524Y-129241524D01*
X149161524Y-129012952D01*
X149199619Y-128936762D01*
X149237714Y-128898667D01*
X149313905Y-128860571D01*
X149466286Y-128860571D01*
X149542476Y-128898667D01*
X150228190Y-129355810D02*
X150152000Y-129393905D01*
X149999619Y-129393905D01*
X149923428Y-129355810D01*
X149885333Y-129317714D01*
X149847238Y-129241524D01*
X149847238Y-129012952D01*
X149885333Y-128936762D01*
X149923428Y-128898667D01*
X149999619Y-128860571D01*
X150152000Y-128860571D01*
X150228190Y-128898667D01*
D13*
X150737619Y-130365000D02*
X153397619Y-130365000D01*
X150737619Y-112525000D02*
X150737619Y-130365000D01*
X153397619Y-112525000D02*
X153397619Y-130365000D01*
X150737619Y-112525000D02*
X153397619Y-112525000D01*
X150737619Y-111255000D02*
X150737619Y-109925000D01*
X150737619Y-109925000D02*
X152067619Y-109925000D01*
D14*
X146050000Y-115570000D02*
X147066000Y-115570000D01*
X147066000Y-115570000D02*
X147066000Y-125730000D01*
X147066000Y-125730000D02*
X146177000Y-125730000D01*
X146177000Y-125730000D02*
X145415000Y-125730000D01*
X145415000Y-125730000D02*
X144907000Y-125730000D01*
X146050000Y-125730000D02*
X128270000Y-125730000D01*
X128270000Y-125730000D02*
X128270000Y-115570000D01*
X128270000Y-115570000D02*
X146050000Y-115570000D01*
D13*
X143903437Y-131204736D02*
G75*
G03X134105643Y-131208000I-4898437J-1383264D01*
G01*
X143903437Y-133971264D02*
G75*
G02X134105643Y-133968000I-4898437J1383264D01*
G01*
X143903437Y-133971264D02*
G75*
G03X143904357Y-131208000I-4898437J1383264D01*
G01*
X139005000Y-127538000D02*
X139005000Y-137638000D01*
X139045000Y-127538000D02*
X139045000Y-137638000D01*
X139085000Y-127538000D02*
X139085000Y-137638000D01*
X139125000Y-127539000D02*
X139125000Y-137637000D01*
X139165000Y-127540000D02*
X139165000Y-137636000D01*
X139205000Y-127541000D02*
X139205000Y-137635000D01*
X139245000Y-127543000D02*
X139245000Y-137633000D01*
X139285000Y-127545000D02*
X139285000Y-137631000D01*
X139325000Y-127548000D02*
X139325000Y-137628000D01*
X139365000Y-127550000D02*
X139365000Y-137626000D01*
X139405000Y-127553000D02*
X139405000Y-137623000D01*
X139445000Y-127557000D02*
X139445000Y-137619000D01*
X139485000Y-127560000D02*
X139485000Y-137616000D01*
X139525000Y-127564000D02*
X139525000Y-137612000D01*
X139565000Y-127568000D02*
X139565000Y-137608000D01*
X139605000Y-127573000D02*
X139605000Y-137603000D01*
X139645000Y-127578000D02*
X139645000Y-137598000D01*
X139685000Y-127583000D02*
X139685000Y-137593000D01*
X139726000Y-127589000D02*
X139726000Y-137587000D01*
X139766000Y-127595000D02*
X139766000Y-137581000D01*
X139806000Y-127601000D02*
X139806000Y-137575000D01*
X139846000Y-127607000D02*
X139846000Y-137569000D01*
X139886000Y-127614000D02*
X139886000Y-137562000D01*
X139926000Y-127621000D02*
X139926000Y-137555000D01*
X139966000Y-127629000D02*
X139966000Y-137547000D01*
X140006000Y-127637000D02*
X140006000Y-137539000D01*
X140046000Y-127645000D02*
X140046000Y-137531000D01*
X140086000Y-127653000D02*
X140086000Y-137523000D01*
X140126000Y-127662000D02*
X140126000Y-137514000D01*
X140166000Y-127671000D02*
X140166000Y-137505000D01*
X140206000Y-127681000D02*
X140206000Y-137495000D01*
X140246000Y-127691000D02*
X140246000Y-137485000D01*
X140286000Y-127701000D02*
X140286000Y-137475000D01*
X140326000Y-127712000D02*
X140326000Y-137464000D01*
X140366000Y-127723000D02*
X140366000Y-137453000D01*
X140406000Y-127734000D02*
X140406000Y-137442000D01*
X140446000Y-127745000D02*
X140446000Y-137431000D01*
X140486000Y-127757000D02*
X140486000Y-137419000D01*
X140526000Y-127770000D02*
X140526000Y-137406000D01*
X140566000Y-127782000D02*
X140566000Y-137394000D01*
X140606000Y-127796000D02*
X140606000Y-137380000D01*
X140646000Y-127809000D02*
X140646000Y-137367000D01*
X140686000Y-127823000D02*
X140686000Y-137353000D01*
X140726000Y-127837000D02*
X140726000Y-137339000D01*
X140766000Y-127851000D02*
X140766000Y-137325000D01*
X140806000Y-127866000D02*
X140806000Y-137310000D01*
X140846000Y-127882000D02*
X140846000Y-137294000D01*
X140886000Y-127897000D02*
X140886000Y-137279000D01*
X140926000Y-127914000D02*
X140926000Y-137262000D01*
X140966000Y-127930000D02*
X140966000Y-137246000D01*
X141006000Y-127947000D02*
X141006000Y-137229000D01*
X141046000Y-127964000D02*
X141046000Y-137212000D01*
X141086000Y-127982000D02*
X141086000Y-137194000D01*
X141126000Y-128000000D02*
X141126000Y-137176000D01*
X141166000Y-128019000D02*
X141166000Y-137157000D01*
X141206000Y-128038000D02*
X141206000Y-137138000D01*
X141246000Y-128057000D02*
X141246000Y-137119000D01*
X141286000Y-128077000D02*
X141286000Y-137099000D01*
X141326000Y-128097000D02*
X141326000Y-137079000D01*
X141366000Y-128118000D02*
X141366000Y-137058000D01*
X141406000Y-128139000D02*
X141406000Y-137037000D01*
X141446000Y-128160000D02*
X141446000Y-137016000D01*
X141486000Y-128183000D02*
X141486000Y-136993000D01*
X141526000Y-128205000D02*
X141526000Y-136971000D01*
X141566000Y-128228000D02*
X141566000Y-136948000D01*
X141606000Y-128252000D02*
X141606000Y-131407000D01*
X141606000Y-133769000D02*
X141606000Y-136924000D01*
X141646000Y-128276000D02*
X141646000Y-131407000D01*
X141646000Y-133769000D02*
X141646000Y-136900000D01*
X141686000Y-128300000D02*
X141686000Y-131407000D01*
X141686000Y-133769000D02*
X141686000Y-136876000D01*
X141726000Y-128325000D02*
X141726000Y-131407000D01*
X141726000Y-133769000D02*
X141726000Y-136851000D01*
X141766000Y-128351000D02*
X141766000Y-131407000D01*
X141766000Y-133769000D02*
X141766000Y-136825000D01*
X141806000Y-128377000D02*
X141806000Y-131407000D01*
X141806000Y-133769000D02*
X141806000Y-136799000D01*
X141846000Y-128403000D02*
X141846000Y-131407000D01*
X141846000Y-133769000D02*
X141846000Y-136773000D01*
X141886000Y-128431000D02*
X141886000Y-131407000D01*
X141886000Y-133769000D02*
X141886000Y-136745000D01*
X141926000Y-128458000D02*
X141926000Y-131407000D01*
X141926000Y-133769000D02*
X141926000Y-136718000D01*
X141966000Y-128487000D02*
X141966000Y-131407000D01*
X141966000Y-133769000D02*
X141966000Y-136689000D01*
X142006000Y-128516000D02*
X142006000Y-131407000D01*
X142006000Y-133769000D02*
X142006000Y-136660000D01*
X142046000Y-128545000D02*
X142046000Y-131407000D01*
X142046000Y-133769000D02*
X142046000Y-136631000D01*
X142086000Y-128575000D02*
X142086000Y-131407000D01*
X142086000Y-133769000D02*
X142086000Y-136601000D01*
X142126000Y-128606000D02*
X142126000Y-131407000D01*
X142126000Y-133769000D02*
X142126000Y-136570000D01*
X142166000Y-128637000D02*
X142166000Y-131407000D01*
X142166000Y-133769000D02*
X142166000Y-136539000D01*
X142206000Y-128669000D02*
X142206000Y-131407000D01*
X142206000Y-133769000D02*
X142206000Y-136507000D01*
X142246000Y-128702000D02*
X142246000Y-131407000D01*
X142246000Y-133769000D02*
X142246000Y-136474000D01*
X142286000Y-128735000D02*
X142286000Y-131407000D01*
X142286000Y-133769000D02*
X142286000Y-136441000D01*
X142326000Y-128769000D02*
X142326000Y-131407000D01*
X142326000Y-133769000D02*
X142326000Y-136407000D01*
X142366000Y-128804000D02*
X142366000Y-131407000D01*
X142366000Y-133769000D02*
X142366000Y-136372000D01*
X142406000Y-128840000D02*
X142406000Y-131407000D01*
X142406000Y-133769000D02*
X142406000Y-136336000D01*
X142446000Y-128876000D02*
X142446000Y-131407000D01*
X142446000Y-133769000D02*
X142446000Y-136300000D01*
X142486000Y-128913000D02*
X142486000Y-131407000D01*
X142486000Y-133769000D02*
X142486000Y-136263000D01*
X142526000Y-128951000D02*
X142526000Y-131407000D01*
X142526000Y-133769000D02*
X142526000Y-136225000D01*
X142566000Y-128990000D02*
X142566000Y-131407000D01*
X142566000Y-133769000D02*
X142566000Y-136186000D01*
X142606000Y-129029000D02*
X142606000Y-131407000D01*
X142606000Y-133769000D02*
X142606000Y-136147000D01*
X142646000Y-129070000D02*
X142646000Y-131407000D01*
X142646000Y-133769000D02*
X142646000Y-136106000D01*
X142686000Y-129111000D02*
X142686000Y-131407000D01*
X142686000Y-133769000D02*
X142686000Y-136065000D01*
X142726000Y-129153000D02*
X142726000Y-131407000D01*
X142726000Y-133769000D02*
X142726000Y-136023000D01*
X142766000Y-129197000D02*
X142766000Y-131407000D01*
X142766000Y-133769000D02*
X142766000Y-135979000D01*
X142806000Y-129241000D02*
X142806000Y-131407000D01*
X142806000Y-133769000D02*
X142806000Y-135935000D01*
X142846000Y-129286000D02*
X142846000Y-131407000D01*
X142846000Y-133769000D02*
X142846000Y-135890000D01*
X142886000Y-129333000D02*
X142886000Y-131407000D01*
X142886000Y-133769000D02*
X142886000Y-135843000D01*
X142926000Y-129381000D02*
X142926000Y-131407000D01*
X142926000Y-133769000D02*
X142926000Y-135795000D01*
X142966000Y-129430000D02*
X142966000Y-131407000D01*
X142966000Y-133769000D02*
X142966000Y-135746000D01*
X143006000Y-129480000D02*
X143006000Y-131407000D01*
X143006000Y-133769000D02*
X143006000Y-135696000D01*
X143046000Y-129531000D02*
X143046000Y-131407000D01*
X143046000Y-133769000D02*
X143046000Y-135645000D01*
X143086000Y-129584000D02*
X143086000Y-131407000D01*
X143086000Y-133769000D02*
X143086000Y-135592000D01*
X143126000Y-129639000D02*
X143126000Y-131407000D01*
X143126000Y-133769000D02*
X143126000Y-135537000D01*
X143166000Y-129694000D02*
X143166000Y-131407000D01*
X143166000Y-133769000D02*
X143166000Y-135482000D01*
X143206000Y-129752000D02*
X143206000Y-131407000D01*
X143206000Y-133769000D02*
X143206000Y-135424000D01*
X143246000Y-129811000D02*
X143246000Y-131407000D01*
X143246000Y-133769000D02*
X143246000Y-135365000D01*
X143286000Y-129873000D02*
X143286000Y-131407000D01*
X143286000Y-133769000D02*
X143286000Y-135303000D01*
X143326000Y-129936000D02*
X143326000Y-131407000D01*
X143326000Y-133769000D02*
X143326000Y-135240000D01*
X143366000Y-130001000D02*
X143366000Y-131407000D01*
X143366000Y-133769000D02*
X143366000Y-135175000D01*
X143406000Y-130069000D02*
X143406000Y-131407000D01*
X143406000Y-133769000D02*
X143406000Y-135107000D01*
X143446000Y-130139000D02*
X143446000Y-131407000D01*
X143446000Y-133769000D02*
X143446000Y-135037000D01*
X143486000Y-130211000D02*
X143486000Y-131407000D01*
X143486000Y-133769000D02*
X143486000Y-134965000D01*
X143526000Y-130287000D02*
X143526000Y-131407000D01*
X143526000Y-133769000D02*
X143526000Y-134889000D01*
X143566000Y-130366000D02*
X143566000Y-131407000D01*
X143566000Y-133769000D02*
X143566000Y-134810000D01*
X143606000Y-130448000D02*
X143606000Y-131407000D01*
X143606000Y-133769000D02*
X143606000Y-134728000D01*
X143646000Y-130535000D02*
X143646000Y-131407000D01*
X143646000Y-133769000D02*
X143646000Y-134641000D01*
X143686000Y-130626000D02*
X143686000Y-131407000D01*
X143686000Y-133769000D02*
X143686000Y-134550000D01*
X143726000Y-130722000D02*
X143726000Y-131407000D01*
X143726000Y-133769000D02*
X143726000Y-134454000D01*
X143766000Y-130825000D02*
X143766000Y-131407000D01*
X143766000Y-133769000D02*
X143766000Y-134351000D01*
X143806000Y-130934000D02*
X143806000Y-131407000D01*
X143806000Y-133769000D02*
X143806000Y-134242000D01*
X143846000Y-131052000D02*
X143846000Y-131407000D01*
X143846000Y-133769000D02*
X143846000Y-134124000D01*
X143886000Y-131181000D02*
X143886000Y-131407000D01*
X143886000Y-133769000D02*
X143886000Y-133995000D01*
X143926000Y-131323000D02*
X143926000Y-131407000D01*
X143926000Y-133769000D02*
X143926000Y-133853000D01*
X143966000Y-131484000D02*
X143966000Y-133692000D01*
X144006000Y-131675000D02*
X144006000Y-133501000D01*
X144046000Y-131916000D02*
X144046000Y-133260000D01*
X144086000Y-132309000D02*
X144086000Y-132867000D01*
X132555000Y-132588000D02*
X134055000Y-132588000D01*
X133305000Y-131838000D02*
X133305000Y-133338000D01*
D15*
X140696190Y-125055237D02*
X141196190Y-124888570D01*
X140696190Y-124721904D01*
X141172381Y-124340952D02*
X141196190Y-124388571D01*
X141196190Y-124483809D01*
X141172381Y-124531428D01*
X141148571Y-124555237D01*
X141100952Y-124579047D01*
X140958095Y-124579047D01*
X140910476Y-124555237D01*
X140886667Y-124531428D01*
X140862857Y-124483809D01*
X140862857Y-124388571D01*
X140886667Y-124340952D01*
X141172381Y-123912381D02*
X141196190Y-123960000D01*
X141196190Y-124055238D01*
X141172381Y-124102857D01*
X141148571Y-124126666D01*
X141100952Y-124150476D01*
X140958095Y-124150476D01*
X140910476Y-124126666D01*
X140886667Y-124102857D01*
X140862857Y-124055238D01*
X140862857Y-123960000D01*
X140886667Y-123912381D01*
X141148571Y-122265238D02*
X141172381Y-122289048D01*
X141196190Y-122360476D01*
X141196190Y-122408095D01*
X141172381Y-122479524D01*
X141124762Y-122527143D01*
X141077143Y-122550952D01*
X140981905Y-122574762D01*
X140910476Y-122574762D01*
X140815238Y-122550952D01*
X140767619Y-122527143D01*
X140720000Y-122479524D01*
X140696190Y-122408095D01*
X140696190Y-122360476D01*
X140720000Y-122289048D01*
X140743810Y-122265238D01*
X141196190Y-122050952D02*
X140696190Y-122050952D01*
X141196190Y-121765238D01*
X140696190Y-121765238D01*
X141172381Y-121550952D02*
X141196190Y-121479523D01*
X141196190Y-121360476D01*
X141172381Y-121312857D01*
X141148571Y-121289047D01*
X141100952Y-121265238D01*
X141053333Y-121265238D01*
X141005714Y-121289047D01*
X140981905Y-121312857D01*
X140958095Y-121360476D01*
X140934286Y-121455714D01*
X140910476Y-121503333D01*
X140886667Y-121527142D01*
X140839048Y-121550952D01*
X140791429Y-121550952D01*
X140743810Y-121527142D01*
X140720000Y-121503333D01*
X140696190Y-121455714D01*
X140696190Y-121336666D01*
X140720000Y-121265238D01*
X141196190Y-120165714D02*
X140696190Y-120165714D01*
X141053333Y-119999048D01*
X140696190Y-119832381D01*
X141196190Y-119832381D01*
X140696190Y-119499047D02*
X140696190Y-119403809D01*
X140720000Y-119356190D01*
X140767619Y-119308571D01*
X140862857Y-119284762D01*
X141029524Y-119284762D01*
X141124762Y-119308571D01*
X141172381Y-119356190D01*
X141196190Y-119403809D01*
X141196190Y-119499047D01*
X141172381Y-119546666D01*
X141124762Y-119594285D01*
X141029524Y-119618095D01*
X140862857Y-119618095D01*
X140767619Y-119594285D01*
X140720000Y-119546666D01*
X140696190Y-119499047D01*
X141172381Y-119094285D02*
X141196190Y-119022856D01*
X141196190Y-118903809D01*
X141172381Y-118856190D01*
X141148571Y-118832380D01*
X141100952Y-118808571D01*
X141053333Y-118808571D01*
X141005714Y-118832380D01*
X140981905Y-118856190D01*
X140958095Y-118903809D01*
X140934286Y-118999047D01*
X140910476Y-119046666D01*
X140886667Y-119070475D01*
X140839048Y-119094285D01*
X140791429Y-119094285D01*
X140743810Y-119070475D01*
X140720000Y-119046666D01*
X140696190Y-118999047D01*
X140696190Y-118879999D01*
X140720000Y-118808571D01*
X141196190Y-118594285D02*
X140696190Y-118594285D01*
X141196190Y-117351904D02*
X140696190Y-117351904D01*
X141196190Y-116828095D02*
X140958095Y-116994762D01*
X141196190Y-117113809D02*
X140696190Y-117113809D01*
X140696190Y-116923333D01*
X140720000Y-116875714D01*
X140743810Y-116851905D01*
X140791429Y-116828095D01*
X140862857Y-116828095D01*
X140910476Y-116851905D01*
X140934286Y-116875714D01*
X140958095Y-116923333D01*
X140958095Y-117113809D01*
X141243810Y-116280476D02*
X141220000Y-116328095D01*
X141172381Y-116375714D01*
X141100952Y-116447143D01*
X141077143Y-116494762D01*
X141077143Y-116542381D01*
X141196190Y-116518571D02*
X141172381Y-116566190D01*
X141124762Y-116613809D01*
X141029524Y-116637619D01*
X140862857Y-116637619D01*
X140767619Y-116613809D01*
X140720000Y-116566190D01*
X140696190Y-116518571D01*
X140696190Y-116423333D01*
X140720000Y-116375714D01*
X140767619Y-116328095D01*
X140862857Y-116304286D01*
X141029524Y-116304286D01*
X141124762Y-116328095D01*
X141172381Y-116375714D01*
X141196190Y-116423333D01*
X141196190Y-116518571D01*
X146276190Y-117625714D02*
X145776190Y-117625714D01*
X146133333Y-117459048D01*
X145776190Y-117292381D01*
X146276190Y-117292381D01*
X146276190Y-117054285D02*
X145776190Y-117054285D01*
X146252381Y-116840000D02*
X146276190Y-116768571D01*
X146276190Y-116649524D01*
X146252381Y-116601905D01*
X146228571Y-116578095D01*
X146180952Y-116554286D01*
X146133333Y-116554286D01*
X146085714Y-116578095D01*
X146061905Y-116601905D01*
X146038095Y-116649524D01*
X146014286Y-116744762D01*
X145990476Y-116792381D01*
X145966667Y-116816190D01*
X145919048Y-116840000D01*
X145871429Y-116840000D01*
X145823810Y-116816190D01*
X145800000Y-116792381D01*
X145776190Y-116744762D01*
X145776190Y-116625714D01*
X145800000Y-116554286D01*
X145776190Y-116244762D02*
X145776190Y-116149524D01*
X145800000Y-116101905D01*
X145847619Y-116054286D01*
X145942857Y-116030477D01*
X146109524Y-116030477D01*
X146204762Y-116054286D01*
X146252381Y-116101905D01*
X146276190Y-116149524D01*
X146276190Y-116244762D01*
X146252381Y-116292381D01*
X146204762Y-116340000D01*
X146109524Y-116363810D01*
X145942857Y-116363810D01*
X145847619Y-116340000D01*
X145800000Y-116292381D01*
X145776190Y-116244762D01*
X146252381Y-120022857D02*
X146276190Y-119951428D01*
X146276190Y-119832381D01*
X146252381Y-119784762D01*
X146228571Y-119760952D01*
X146180952Y-119737143D01*
X146133333Y-119737143D01*
X146085714Y-119760952D01*
X146061905Y-119784762D01*
X146038095Y-119832381D01*
X146014286Y-119927619D01*
X145990476Y-119975238D01*
X145966667Y-119999047D01*
X145919048Y-120022857D01*
X145871429Y-120022857D01*
X145823810Y-119999047D01*
X145800000Y-119975238D01*
X145776190Y-119927619D01*
X145776190Y-119808571D01*
X145800000Y-119737143D01*
X146228571Y-119237143D02*
X146252381Y-119260953D01*
X146276190Y-119332381D01*
X146276190Y-119380000D01*
X146252381Y-119451429D01*
X146204762Y-119499048D01*
X146157143Y-119522857D01*
X146061905Y-119546667D01*
X145990476Y-119546667D01*
X145895238Y-119522857D01*
X145847619Y-119499048D01*
X145800000Y-119451429D01*
X145776190Y-119380000D01*
X145776190Y-119332381D01*
X145800000Y-119260953D01*
X145823810Y-119237143D01*
X146276190Y-119022857D02*
X145776190Y-119022857D01*
X146276190Y-118737143D02*
X145990476Y-118951429D01*
X145776190Y-118737143D02*
X146061905Y-119022857D01*
X146228571Y-121991428D02*
X146252381Y-122015238D01*
X146276190Y-122086666D01*
X146276190Y-122134285D01*
X146252381Y-122205714D01*
X146204762Y-122253333D01*
X146157143Y-122277142D01*
X146061905Y-122300952D01*
X145990476Y-122300952D01*
X145895238Y-122277142D01*
X145847619Y-122253333D01*
X145800000Y-122205714D01*
X145776190Y-122134285D01*
X145776190Y-122086666D01*
X145800000Y-122015238D01*
X145823810Y-121991428D01*
X146014286Y-121777142D02*
X146014286Y-121610476D01*
X146276190Y-121539047D02*
X146276190Y-121777142D01*
X145776190Y-121777142D01*
X145776190Y-121539047D01*
X145800000Y-124840953D02*
X145776190Y-124888572D01*
X145776190Y-124960000D01*
X145800000Y-125031429D01*
X145847619Y-125079048D01*
X145895238Y-125102857D01*
X145990476Y-125126667D01*
X146061905Y-125126667D01*
X146157143Y-125102857D01*
X146204762Y-125079048D01*
X146252381Y-125031429D01*
X146276190Y-124960000D01*
X146276190Y-124912381D01*
X146252381Y-124840953D01*
X146228571Y-124817143D01*
X146061905Y-124817143D01*
X146061905Y-124912381D01*
X146276190Y-124602857D02*
X145776190Y-124602857D01*
X146276190Y-124317143D01*
X145776190Y-124317143D01*
X146276190Y-124079047D02*
X145776190Y-124079047D01*
X145776190Y-123960000D01*
X145800000Y-123888571D01*
X145847619Y-123840952D01*
X145895238Y-123817143D01*
X145990476Y-123793333D01*
X146061905Y-123793333D01*
X146157143Y-123817143D01*
X146204762Y-123840952D01*
X146252381Y-123888571D01*
X146276190Y-123960000D01*
X146276190Y-124079047D01*
D14*
X138898334Y-126976143D02*
X138850715Y-127023762D01*
X138707858Y-127071381D01*
X138612620Y-127071381D01*
X138469762Y-127023762D01*
X138374524Y-126928524D01*
X138326905Y-126833286D01*
X138279286Y-126642810D01*
X138279286Y-126499952D01*
X138326905Y-126309476D01*
X138374524Y-126214238D01*
X138469762Y-126119000D01*
X138612620Y-126071381D01*
X138707858Y-126071381D01*
X138850715Y-126119000D01*
X138898334Y-126166619D01*
X139850715Y-127071381D02*
X139279286Y-127071381D01*
X139565000Y-127071381D02*
X139565000Y-126071381D01*
X139469762Y-126214238D01*
X139374524Y-126309476D01*
X139279286Y-126357095D01*
M02*
