G04 #@! TF.FileFunction,Copper,L1,Top,Signal*
%FSLAX46Y46*%
G04 Gerber Fmt 4.6, Leading zero omitted, Abs format (unit mm)*
G04 Created by KiCad (PCBNEW 4.0.7) date 02/12/18 20:49:11*
%MOMM*%
%LPD*%
G01*
G04 APERTURE LIST*
%ADD10C,0.100000*%
%ADD11R,1.700000X1.700000*%
%ADD12O,1.700000X1.700000*%
%ADD13C,1.524000*%
%ADD14R,2.000000X2.000000*%
%ADD15C,2.000000*%
%ADD16C,0.250000*%
%ADD17C,0.254000*%
G04 APERTURE END LIST*
D10*
D11*
X152067619Y-111255000D03*
D12*
X152067619Y-113795000D03*
X152067619Y-116335000D03*
X152067619Y-118875000D03*
X152067619Y-121415000D03*
X152067619Y-123955000D03*
X152067619Y-126495000D03*
X152067619Y-129035000D03*
D13*
X144780000Y-121920000D03*
X144780000Y-119380000D03*
X144780000Y-116840000D03*
X142240000Y-116840000D03*
X142240000Y-119380000D03*
X142240000Y-121920000D03*
X142240000Y-124460000D03*
X144780000Y-124460000D03*
D14*
X135255000Y-132588000D03*
D15*
X142755000Y-132588000D03*
D16*
X144780000Y-121920000D02*
X150114000Y-121920000D01*
X153670000Y-115397381D02*
X152067619Y-113795000D01*
X153670000Y-122428000D02*
X153670000Y-115397381D01*
X153416000Y-122682000D02*
X153670000Y-122428000D01*
X150876000Y-122682000D02*
X153416000Y-122682000D01*
X150114000Y-121920000D02*
X150876000Y-122682000D01*
X144780000Y-119380000D02*
X144526000Y-119380000D01*
X144526000Y-119380000D02*
X143510000Y-118364000D01*
X143510000Y-118364000D02*
X143510000Y-115570000D01*
X143510000Y-115570000D02*
X149860000Y-115570000D01*
X149860000Y-115570000D02*
X150625000Y-116335000D01*
X150625000Y-116335000D02*
X152067619Y-116335000D01*
X144780000Y-116840000D02*
X148336000Y-116840000D01*
X149101000Y-118875000D02*
X152067619Y-118875000D01*
X148844000Y-118618000D02*
X149101000Y-118875000D01*
X148844000Y-117348000D02*
X148844000Y-118618000D01*
X148336000Y-116840000D02*
X148844000Y-117348000D01*
X142240000Y-116840000D02*
X142240000Y-117730398D01*
X151302619Y-120650000D02*
X152067619Y-121415000D01*
X144399000Y-120650000D02*
X151302619Y-120650000D01*
X143510000Y-119761000D02*
X144399000Y-120650000D01*
X143510000Y-119000398D02*
X143510000Y-119761000D01*
X142240000Y-117730398D02*
X143510000Y-119000398D01*
X142240000Y-119380000D02*
X143510000Y-120650000D01*
X151302619Y-123190000D02*
X152067619Y-123955000D01*
X144018000Y-123190000D02*
X151302619Y-123190000D01*
X143510000Y-122682000D02*
X144018000Y-123190000D01*
X143510000Y-120650000D02*
X143510000Y-122682000D01*
X142240000Y-121920000D02*
X142240000Y-122174000D01*
X142240000Y-122174000D02*
X143510000Y-123444000D01*
X143510000Y-123444000D02*
X143510000Y-126492000D01*
X143510000Y-126492000D02*
X143513000Y-126495000D01*
X143513000Y-126495000D02*
X152067619Y-126495000D01*
X135255000Y-132588000D02*
X135255000Y-125222000D01*
X136017000Y-124460000D02*
X142240000Y-124460000D01*
X135255000Y-125222000D02*
X136017000Y-124460000D01*
X142240000Y-124460000D02*
X142240000Y-127508000D01*
X143767000Y-129035000D02*
X152067619Y-129035000D01*
X142240000Y-127508000D02*
X143767000Y-129035000D01*
X142755000Y-132588000D02*
X144399000Y-132588000D01*
X154305000Y-130683000D02*
X154305000Y-125095000D01*
X153543000Y-131445000D02*
X154305000Y-130683000D01*
X145542000Y-131445000D02*
X153543000Y-131445000D01*
X144399000Y-132588000D02*
X145542000Y-131445000D01*
X144780000Y-124460000D02*
X150114000Y-124460000D01*
X154305000Y-113492381D02*
X152067619Y-111255000D01*
X154305000Y-125095000D02*
X154305000Y-113492381D01*
X154178000Y-125222000D02*
X154305000Y-125095000D01*
X150876000Y-125222000D02*
X154178000Y-125222000D01*
X150114000Y-124460000D02*
X150876000Y-125222000D01*
D17*
G36*
X154230000Y-114893802D02*
X154207401Y-114859980D01*
X153508829Y-114161408D01*
X153581712Y-113795000D01*
X153468673Y-113226715D01*
X153146766Y-112744946D01*
X153102842Y-112715597D01*
X153277317Y-112643327D01*
X153455946Y-112464699D01*
X153552619Y-112231310D01*
X153552619Y-111540750D01*
X153393869Y-111382000D01*
X152194619Y-111382000D01*
X152194619Y-111402000D01*
X151940619Y-111402000D01*
X151940619Y-111382000D01*
X150741369Y-111382000D01*
X150582619Y-111540750D01*
X150582619Y-112231310D01*
X150679292Y-112464699D01*
X150857921Y-112643327D01*
X151032396Y-112715597D01*
X150988472Y-112744946D01*
X150666565Y-113226715D01*
X150553526Y-113795000D01*
X150666565Y-114363285D01*
X150988472Y-114845054D01*
X151317645Y-115065000D01*
X150988472Y-115284946D01*
X150852798Y-115487996D01*
X150397401Y-115032599D01*
X150150839Y-114867852D01*
X149860000Y-114810000D01*
X143510000Y-114810000D01*
X143219161Y-114867852D01*
X142972599Y-115032599D01*
X142807852Y-115279161D01*
X142755674Y-115541477D01*
X142519100Y-115443243D01*
X141963339Y-115442758D01*
X141449697Y-115654990D01*
X141056371Y-116047630D01*
X140843243Y-116560900D01*
X140842758Y-117116661D01*
X141054990Y-117630303D01*
X141447630Y-118023629D01*
X141574708Y-118076396D01*
X141609759Y-118128854D01*
X141449697Y-118194990D01*
X141056371Y-118587630D01*
X140843243Y-119100900D01*
X140842758Y-119656661D01*
X141054990Y-120170303D01*
X141447630Y-120563629D01*
X141655512Y-120649949D01*
X141449697Y-120734990D01*
X141056371Y-121127630D01*
X140843243Y-121640900D01*
X140842758Y-122196661D01*
X141054990Y-122710303D01*
X141447630Y-123103629D01*
X141655512Y-123189949D01*
X141449697Y-123274990D01*
X141056371Y-123667630D01*
X141042930Y-123700000D01*
X136017000Y-123700000D01*
X135726161Y-123757852D01*
X135479599Y-123922599D01*
X134717599Y-124684599D01*
X134552852Y-124931161D01*
X134495000Y-125222000D01*
X134495000Y-130940560D01*
X134255000Y-130940560D01*
X134019683Y-130984838D01*
X133803559Y-131123910D01*
X133658569Y-131336110D01*
X133607560Y-131588000D01*
X133607560Y-133588000D01*
X133651838Y-133823317D01*
X133790910Y-134039441D01*
X134003110Y-134184431D01*
X134255000Y-134235440D01*
X136255000Y-134235440D01*
X136490317Y-134191162D01*
X136706441Y-134052090D01*
X136851431Y-133839890D01*
X136871551Y-133740532D01*
X141782073Y-133740532D01*
X141880736Y-134007387D01*
X142490461Y-134233908D01*
X143140460Y-134209856D01*
X143629264Y-134007387D01*
X143727927Y-133740532D01*
X142755000Y-132767605D01*
X141782073Y-133740532D01*
X136871551Y-133740532D01*
X136902440Y-133588000D01*
X136902440Y-132323461D01*
X141109092Y-132323461D01*
X141133144Y-132973460D01*
X141335613Y-133462264D01*
X141602468Y-133560927D01*
X142575395Y-132588000D01*
X142934605Y-132588000D01*
X143907532Y-133560927D01*
X144174387Y-133462264D01*
X144400908Y-132852539D01*
X144376856Y-132202540D01*
X144174387Y-131713736D01*
X143907532Y-131615073D01*
X142934605Y-132588000D01*
X142575395Y-132588000D01*
X141602468Y-131615073D01*
X141335613Y-131713736D01*
X141109092Y-132323461D01*
X136902440Y-132323461D01*
X136902440Y-131588000D01*
X136873740Y-131435468D01*
X141782073Y-131435468D01*
X142755000Y-132408395D01*
X143727927Y-131435468D01*
X143629264Y-131168613D01*
X143019539Y-130942092D01*
X142369540Y-130966144D01*
X141880736Y-131168613D01*
X141782073Y-131435468D01*
X136873740Y-131435468D01*
X136858162Y-131352683D01*
X136719090Y-131136559D01*
X136506890Y-130991569D01*
X136255000Y-130940560D01*
X136015000Y-130940560D01*
X136015000Y-125536802D01*
X136331802Y-125220000D01*
X141042469Y-125220000D01*
X141054990Y-125250303D01*
X141447630Y-125643629D01*
X141480000Y-125657070D01*
X141480000Y-127508000D01*
X141537852Y-127798839D01*
X141702599Y-128045401D01*
X143229599Y-129572401D01*
X143476161Y-129737148D01*
X143767000Y-129795000D01*
X150794665Y-129795000D01*
X150988472Y-130085054D01*
X151470241Y-130406961D01*
X152038526Y-130520000D01*
X152096712Y-130520000D01*
X152664997Y-130406961D01*
X153146766Y-130085054D01*
X153468673Y-129603285D01*
X153581712Y-129035000D01*
X153468673Y-128466715D01*
X153146766Y-127984946D01*
X152817593Y-127765000D01*
X153146766Y-127545054D01*
X153468673Y-127063285D01*
X153581712Y-126495000D01*
X153468673Y-125926715D01*
X153146766Y-125444946D01*
X152817593Y-125225000D01*
X153146766Y-125005054D01*
X153468673Y-124523285D01*
X153581712Y-123955000D01*
X153477247Y-123429817D01*
X153706839Y-123384148D01*
X153953401Y-123219401D01*
X154207401Y-122965401D01*
X154230000Y-122931579D01*
X154230000Y-132005000D01*
X145796000Y-132005000D01*
X145524295Y-132059046D01*
X145293954Y-132212954D01*
X145140046Y-132443295D01*
X145086000Y-132715000D01*
X145086000Y-138355000D01*
X132790000Y-138355000D01*
X132790000Y-132588000D01*
X132735954Y-132316295D01*
X132582046Y-132085954D01*
X132351705Y-131932046D01*
X132080000Y-131878000D01*
X127964000Y-131878000D01*
X127964000Y-110278690D01*
X150582619Y-110278690D01*
X150582619Y-110969250D01*
X150741369Y-111128000D01*
X151940619Y-111128000D01*
X151940619Y-109928750D01*
X152194619Y-109928750D01*
X152194619Y-111128000D01*
X153393869Y-111128000D01*
X153552619Y-110969250D01*
X153552619Y-110278690D01*
X153455946Y-110045301D01*
X153277317Y-109866673D01*
X153043928Y-109770000D01*
X152353369Y-109770000D01*
X152194619Y-109928750D01*
X151940619Y-109928750D01*
X151781869Y-109770000D01*
X151091310Y-109770000D01*
X150857921Y-109866673D01*
X150679292Y-110045301D01*
X150582619Y-110278690D01*
X127964000Y-110278690D01*
X127964000Y-109676000D01*
X154230000Y-109676000D01*
X154230000Y-114893802D01*
X154230000Y-114893802D01*
G37*
X154230000Y-114893802D02*
X154207401Y-114859980D01*
X153508829Y-114161408D01*
X153581712Y-113795000D01*
X153468673Y-113226715D01*
X153146766Y-112744946D01*
X153102842Y-112715597D01*
X153277317Y-112643327D01*
X153455946Y-112464699D01*
X153552619Y-112231310D01*
X153552619Y-111540750D01*
X153393869Y-111382000D01*
X152194619Y-111382000D01*
X152194619Y-111402000D01*
X151940619Y-111402000D01*
X151940619Y-111382000D01*
X150741369Y-111382000D01*
X150582619Y-111540750D01*
X150582619Y-112231310D01*
X150679292Y-112464699D01*
X150857921Y-112643327D01*
X151032396Y-112715597D01*
X150988472Y-112744946D01*
X150666565Y-113226715D01*
X150553526Y-113795000D01*
X150666565Y-114363285D01*
X150988472Y-114845054D01*
X151317645Y-115065000D01*
X150988472Y-115284946D01*
X150852798Y-115487996D01*
X150397401Y-115032599D01*
X150150839Y-114867852D01*
X149860000Y-114810000D01*
X143510000Y-114810000D01*
X143219161Y-114867852D01*
X142972599Y-115032599D01*
X142807852Y-115279161D01*
X142755674Y-115541477D01*
X142519100Y-115443243D01*
X141963339Y-115442758D01*
X141449697Y-115654990D01*
X141056371Y-116047630D01*
X140843243Y-116560900D01*
X140842758Y-117116661D01*
X141054990Y-117630303D01*
X141447630Y-118023629D01*
X141574708Y-118076396D01*
X141609759Y-118128854D01*
X141449697Y-118194990D01*
X141056371Y-118587630D01*
X140843243Y-119100900D01*
X140842758Y-119656661D01*
X141054990Y-120170303D01*
X141447630Y-120563629D01*
X141655512Y-120649949D01*
X141449697Y-120734990D01*
X141056371Y-121127630D01*
X140843243Y-121640900D01*
X140842758Y-122196661D01*
X141054990Y-122710303D01*
X141447630Y-123103629D01*
X141655512Y-123189949D01*
X141449697Y-123274990D01*
X141056371Y-123667630D01*
X141042930Y-123700000D01*
X136017000Y-123700000D01*
X135726161Y-123757852D01*
X135479599Y-123922599D01*
X134717599Y-124684599D01*
X134552852Y-124931161D01*
X134495000Y-125222000D01*
X134495000Y-130940560D01*
X134255000Y-130940560D01*
X134019683Y-130984838D01*
X133803559Y-131123910D01*
X133658569Y-131336110D01*
X133607560Y-131588000D01*
X133607560Y-133588000D01*
X133651838Y-133823317D01*
X133790910Y-134039441D01*
X134003110Y-134184431D01*
X134255000Y-134235440D01*
X136255000Y-134235440D01*
X136490317Y-134191162D01*
X136706441Y-134052090D01*
X136851431Y-133839890D01*
X136871551Y-133740532D01*
X141782073Y-133740532D01*
X141880736Y-134007387D01*
X142490461Y-134233908D01*
X143140460Y-134209856D01*
X143629264Y-134007387D01*
X143727927Y-133740532D01*
X142755000Y-132767605D01*
X141782073Y-133740532D01*
X136871551Y-133740532D01*
X136902440Y-133588000D01*
X136902440Y-132323461D01*
X141109092Y-132323461D01*
X141133144Y-132973460D01*
X141335613Y-133462264D01*
X141602468Y-133560927D01*
X142575395Y-132588000D01*
X142934605Y-132588000D01*
X143907532Y-133560927D01*
X144174387Y-133462264D01*
X144400908Y-132852539D01*
X144376856Y-132202540D01*
X144174387Y-131713736D01*
X143907532Y-131615073D01*
X142934605Y-132588000D01*
X142575395Y-132588000D01*
X141602468Y-131615073D01*
X141335613Y-131713736D01*
X141109092Y-132323461D01*
X136902440Y-132323461D01*
X136902440Y-131588000D01*
X136873740Y-131435468D01*
X141782073Y-131435468D01*
X142755000Y-132408395D01*
X143727927Y-131435468D01*
X143629264Y-131168613D01*
X143019539Y-130942092D01*
X142369540Y-130966144D01*
X141880736Y-131168613D01*
X141782073Y-131435468D01*
X136873740Y-131435468D01*
X136858162Y-131352683D01*
X136719090Y-131136559D01*
X136506890Y-130991569D01*
X136255000Y-130940560D01*
X136015000Y-130940560D01*
X136015000Y-125536802D01*
X136331802Y-125220000D01*
X141042469Y-125220000D01*
X141054990Y-125250303D01*
X141447630Y-125643629D01*
X141480000Y-125657070D01*
X141480000Y-127508000D01*
X141537852Y-127798839D01*
X141702599Y-128045401D01*
X143229599Y-129572401D01*
X143476161Y-129737148D01*
X143767000Y-129795000D01*
X150794665Y-129795000D01*
X150988472Y-130085054D01*
X151470241Y-130406961D01*
X152038526Y-130520000D01*
X152096712Y-130520000D01*
X152664997Y-130406961D01*
X153146766Y-130085054D01*
X153468673Y-129603285D01*
X153581712Y-129035000D01*
X153468673Y-128466715D01*
X153146766Y-127984946D01*
X152817593Y-127765000D01*
X153146766Y-127545054D01*
X153468673Y-127063285D01*
X153581712Y-126495000D01*
X153468673Y-125926715D01*
X153146766Y-125444946D01*
X152817593Y-125225000D01*
X153146766Y-125005054D01*
X153468673Y-124523285D01*
X153581712Y-123955000D01*
X153477247Y-123429817D01*
X153706839Y-123384148D01*
X153953401Y-123219401D01*
X154207401Y-122965401D01*
X154230000Y-122931579D01*
X154230000Y-132005000D01*
X145796000Y-132005000D01*
X145524295Y-132059046D01*
X145293954Y-132212954D01*
X145140046Y-132443295D01*
X145086000Y-132715000D01*
X145086000Y-138355000D01*
X132790000Y-138355000D01*
X132790000Y-132588000D01*
X132735954Y-132316295D01*
X132582046Y-132085954D01*
X132351705Y-131932046D01*
X132080000Y-131878000D01*
X127964000Y-131878000D01*
X127964000Y-110278690D01*
X150582619Y-110278690D01*
X150582619Y-110969250D01*
X150741369Y-111128000D01*
X151940619Y-111128000D01*
X151940619Y-109928750D01*
X152194619Y-109928750D01*
X152194619Y-111128000D01*
X153393869Y-111128000D01*
X153552619Y-110969250D01*
X153552619Y-110278690D01*
X153455946Y-110045301D01*
X153277317Y-109866673D01*
X153043928Y-109770000D01*
X152353369Y-109770000D01*
X152194619Y-109928750D01*
X151940619Y-109928750D01*
X151781869Y-109770000D01*
X151091310Y-109770000D01*
X150857921Y-109866673D01*
X150679292Y-110045301D01*
X150582619Y-110278690D01*
X127964000Y-110278690D01*
X127964000Y-109676000D01*
X154230000Y-109676000D01*
X154230000Y-114893802D01*
G36*
X150553526Y-123955000D02*
X150666565Y-124523285D01*
X150988472Y-125005054D01*
X151317645Y-125225000D01*
X150988472Y-125444946D01*
X150794665Y-125735000D01*
X145384148Y-125735000D01*
X145511143Y-125682397D01*
X145580608Y-125440213D01*
X144780000Y-124639605D01*
X144765858Y-124653748D01*
X144586253Y-124474143D01*
X144600395Y-124460000D01*
X144586253Y-124445858D01*
X144765858Y-124266253D01*
X144780000Y-124280395D01*
X144794143Y-124266253D01*
X144973748Y-124445858D01*
X144959605Y-124460000D01*
X145760213Y-125260608D01*
X146002397Y-125191143D01*
X146189144Y-124667698D01*
X146161362Y-124112632D01*
X146093998Y-123950000D01*
X150554521Y-123950000D01*
X150553526Y-123955000D01*
X150553526Y-123955000D01*
G37*
X150553526Y-123955000D02*
X150666565Y-124523285D01*
X150988472Y-125005054D01*
X151317645Y-125225000D01*
X150988472Y-125444946D01*
X150794665Y-125735000D01*
X145384148Y-125735000D01*
X145511143Y-125682397D01*
X145580608Y-125440213D01*
X144780000Y-124639605D01*
X144765858Y-124653748D01*
X144586253Y-124474143D01*
X144600395Y-124460000D01*
X144586253Y-124445858D01*
X144765858Y-124266253D01*
X144780000Y-124280395D01*
X144794143Y-124266253D01*
X144973748Y-124445858D01*
X144959605Y-124460000D01*
X145760213Y-125260608D01*
X146002397Y-125191143D01*
X146189144Y-124667698D01*
X146161362Y-124112632D01*
X146093998Y-123950000D01*
X150554521Y-123950000D01*
X150553526Y-123955000D01*
M02*
